<?xml version="1.0" encoding="UTF-8"?>
<svg id="Layer_2" data-name="Layer 2" xmlns="http://www.w3.org/2000/svg" viewBox="0 0 250 250">
  <defs>
    <style>
      .cls-1 {
        fill: #c03;
      }

      .cls-2 {
        fill: #231f20;
      }
    </style>
  </defs>
  <g id="Layer_1-2" data-name="Layer 1">
    <g>
      <rect class="cls-2" width="250" height="250"/>
      <g>
        <path class="cls-1" d="m135.44,39.59s-16.55,5.85-27.42,25.08-9.53,21.9-14.88,55.34l-2.17,29.51s5.68,9.38,8.36,9.36l57.85-.33,5.52-5.52-31.14-52.34.59-6.24s-9.03-7.65-6.18-10.83l1.75.87s1.23,2.58,2.94,5.03,18.05,5.93,18.05,5.93c0,0,11.61,7.58,10.26,8.32l.57-.83s1.59-3.69,2.48-3.18,10.19-3.88,9.17-6.05c.08-2.55.08-7.9.08-7.9,0,0-22.11-25.79-20.96-26.74,0,0-12.28-6.34-14.13-6.37s-.06-13.13-.06-13.13"/>
        <path class="cls-1" d="m110.79,54.29s-10.64,4.26-13.98,9.12-3.04-.46-9.12,22.95-8.97,61.26-8.97,61.26c0,0,6.84.61,8.36-1.06s7.07-51.7,7.07-51.7c0,0,4.68-18.77,4.95-18.84s6.53-13.82,6.95-13.41,5.36-7.36,5.36-7.36"/>
        <polyline class="cls-1" points="97.53 163.04 158.44 163.04 160.94 165.29 158.68 169.45 158.44 173.84 97.53 174.56 96.94 169.33 94.56 165.77"/>
        <path class="cls-1" d="m99.43,178.24h55.57s7.01,5.58,5.94,6.29,0,6.41,0,6.41l-5.11,4.99-56.4.47-5.03-5.11v-7.7"/>
        <polyline class="cls-1" points="89.11 201.1 89.11 210.41 165.01 210.41 165.01 201.1"/>
      </g>
    </g>
  </g>
</svg>