<?xml version="1.0" encoding="UTF-8"?>
<svg id="Layer_1" data-name="Layer 1" xmlns="http://www.w3.org/2000/svg" viewBox="0 0 560.73 238.16">
  <defs>
    <style>
      .cls-1 {
        fill: #cd1f36;
      }

      .cls-2 {
        fill: #231f20;
      }

      .cls-3 {
        fill: #fff;
        font-family: HiraKakuStdN-W8-83pv-RKSJ-H, 'Hiragino Kaku Gothic StdN';
        font-size: 50px;
      }
    </style>
  </defs>
  <g id="Layer_1-2" data-name="Layer 1-2">
    <g>
      <rect class="cls-2" width="238.16" height="238.16"/>
      <g>
        <path class="cls-1" d="m129.02,37.71s-15.77,5.57-26.12,23.89c-10.36,18.32-9.08,20.86-14.18,52.72l-2.07,28.11s5.41,8.94,7.96,8.92l55.11-.31,5.26-5.26-29.66-49.86.56-5.94s-8.6-7.29-5.89-10.32l1.67.83s1.17,2.46,2.8,4.79,17.2,5.65,17.2,5.65c0,0,11.06,7.22,9.77,7.93l.54-.79s1.51-3.52,2.36-3.03,9.71-3.7,8.74-5.76c.08-2.43.08-7.53.08-7.53,0,0-21.06-24.57-19.97-25.47,0,0-11.7-6.04-13.46-6.07s-.06-12.51-.06-12.51"/>
        <path class="cls-1" d="m105.54,51.72s-10.14,4.06-13.32,8.69-2.9-.44-8.69,21.86c-5.79,22.3-8.55,58.36-8.55,58.36,0,0,6.52.58,7.96-1.01s6.74-49.25,6.74-49.25c0,0,4.46-17.88,4.72-17.95s6.22-13.17,6.62-12.77,5.11-7.01,5.11-7.01"/>
        <polyline class="cls-1" points="92.91 155.32 150.93 155.32 153.32 157.46 151.16 161.42 150.93 165.61 92.91 166.29 92.35 161.31 90.08 157.92"/>
        <path class="cls-1" d="m94.72,169.8h52.94s6.68,5.32,5.66,5.99,0,6.11,0,6.11l-4.87,4.75-53.73.45-4.79-4.87v-7.34"/>
        <polyline class="cls-1" points="84.89 191.57 84.89 200.44 157.19 200.44 157.19 191.57"/>
      </g>
    </g>
  </g>
  <rect class="cls-2" x="238.16" width="322.57" height="238.16"/>
  <text class="cls-3" transform="translate(240.01 103.18)"><tspan x="0" y="0">Chess </tspan><tspan x="0" y="60">Center</tspan></text>
</svg>